<svg id="visual" viewBox="0 0 960 540" width="960" height="540" xmlns="http://www.w3.org/2000/svg" xmlnsXlink="http://www.w3.org/1999/xlink" version="1.1"><rect x="0" y="0" width="960" height="540" fill="#1a1a1a"></rect><defs><linearGradient id="grad1_0" x1="43.8%" y1="0%" x2="100%" y2="100%"><stop offset="14.444444444444446%" stop-color="#3c0056" stop-opacity="1"></stop><stop offset="85.55555555555554%" stop-color="#3c0056" stop-opacity="1"></stop></linearGradient></defs><defs><linearGradient id="grad1_1" x1="43.8%" y1="0%" x2="100%" y2="100%"><stop offset="14.444444444444446%" stop-color="#3c0056" stop-opacity="1"></stop><stop offset="85.55555555555554%" stop-color="#1a1a1a" stop-opacity="1"></stop></linearGradient></defs><defs><linearGradient id="grad2_0" x1="0%" y1="0%" x2="56.3%" y2="100%"><stop offset="14.444444444444446%" stop-color="#3c0056" stop-opacity="1"></stop><stop offset="85.55555555555554%" stop-color="#3c0056" stop-opacity="1"></stop></linearGradient></defs><defs><linearGradient id="grad2_1" x1="0%" y1="0%" x2="56.3%" y2="100%"><stop offset="14.444444444444446%" stop-color="#1a1a1a" stop-opacity="1"></stop><stop offset="85.55555555555554%" stop-color="#3c0056" stop-opacity="1"></stop></linearGradient></defs><g transform="translate(960, 0)"><path d="M0 270C-24.5 256.5 -48.9 243 -76.6 235.9C-104.3 228.7 -135.3 227.8 -154 212C-172.7 196.1 -179.1 165.4 -196.6 142.8C-214.1 120.3 -242.7 105.9 -256.8 83.4C-270.9 61 -270.4 30.5 -270 0L0 0Z" fill="#2d1437"></path><path d="M0 135C-12.2 128.3 -24.5 121.5 -38.3 117.9C-52.2 114.3 -67.7 113.9 -77 106C-86.3 98.1 -89.5 82.7 -98.3 71.4C-107 60.1 -121.4 52.9 -128.4 41.7C-135.4 30.5 -135.2 15.2 -135 0L0 0Z" fill="#3c0056"></path></g><g transform="translate(0, 540)"><path d="M0 -270C27.3 -259.8 54.7 -249.6 76.3 -234.9C98 -220.2 114 -201 137 -188.5C159.9 -176 189.8 -170.3 212 -154C234.1 -137.7 248.4 -110.9 256.8 -83.4C265.2 -56 267.6 -28 270 0L0 0Z" fill="#2d1437"></path><path d="M0 -135C13.7 -129.9 27.3 -124.8 38.2 -117.5C49 -110.1 57 -100.5 68.5 -94.3C80 -88 94.9 -85.1 106 -77C117 -68.9 124.2 -55.4 128.4 -41.7C132.6 -28 133.8 -14 135 0L0 0Z" fill="#3c0056"></path></g></svg>