<svg id="visual" viewBox="0 0 960 540" width="960" height="540" xmlns="http://www.w3.org/2000/svg" xmlns:xlink="http://www.w3.org/1999/xlink" version="1.1"><rect x="0" y="0" width="960" height="540" fill="#98A8F8"></rect><defs><linearGradient id="grad1_0" x1="43.8%" y1="0%" x2="100%" y2="100%"><stop offset="14.444444444444446%" stop-color="#ecc1ff" stop-opacity="1"></stop><stop offset="85.55555555555554%" stop-color="#ecc1ff" stop-opacity="1"></stop></linearGradient></defs><defs><linearGradient id="grad1_1" x1="43.8%" y1="0%" x2="100%" y2="100%"><stop offset="14.444444444444446%" stop-color="#ecc1ff" stop-opacity="1"></stop><stop offset="85.55555555555554%" stop-color="#98a8f8" stop-opacity="1"></stop></linearGradient></defs><defs><linearGradient id="grad2_0" x1="0%" y1="0%" x2="56.3%" y2="100%"><stop offset="14.444444444444446%" stop-color="#ecc1ff" stop-opacity="1"></stop><stop offset="85.55555555555554%" stop-color="#ecc1ff" stop-opacity="1"></stop></linearGradient></defs><defs><linearGradient id="grad2_1" x1="0%" y1="0%" x2="56.3%" y2="100%"><stop offset="14.444444444444446%" stop-color="#98a8f8" stop-opacity="1"></stop><stop offset="85.55555555555554%" stop-color="#ecc1ff" stop-opacity="1"></stop></linearGradient></defs><g transform="translate(960, 0)"><path d="M0 270C-24.3 255.7 -48.7 241.4 -75.7 233C-102.8 224.6 -132.5 222.1 -149.3 205.5C-166.1 188.8 -169.8 158 -188.5 137C-207.2 115.9 -240.7 104.6 -256.8 83.4C-272.9 62.2 -271.4 31.1 -270 0L0 0Z" fill="#c6b4fd"></path><path d="M0 135C-12.2 127.8 -24.3 120.7 -37.9 116.5C-51.4 112.3 -66.3 111.1 -74.6 102.7C-83 94.4 -84.9 79 -94.3 68.5C-103.6 58 -120.4 52.3 -128.4 41.7C-136.4 31.1 -135.7 15.6 -135 0L0 0Z" fill="#ecc1ff"></path></g><g transform="translate(0, 540)"><path d="M0 -270C25.4 -259 50.8 -248.1 78.5 -241.6C106.2 -235.1 136.1 -233.1 158.7 -218.4C181.3 -203.8 196.5 -176.6 207.9 -151.1C219.4 -125.6 227.1 -101.8 236.8 -76.9C246.5 -52.1 258.3 -26 270 0L0 0Z" fill="#c6b4fd"></path><path d="M0 -135C12.7 -129.5 25.4 -124 39.2 -120.8C53.1 -117.5 68.1 -116.5 79.4 -109.2C90.6 -101.9 98.2 -88.3 104 -75.5C109.7 -62.8 113.5 -50.9 118.4 -38.5C123.3 -26 129.1 -13 135 0L0 0Z" fill="#ecc1ff"></path></g></svg>